<svg xmlns="http://www.w3.org/2000/svg" viewBox="0 0 500 500"><defs><style>.cls-1{fill:#fff;}.cls-2{fill:#008891;}</style></defs><g id="Layer_2" data-name="Layer 2"><g id="Layer_1-2" data-name="Layer 1"><rect class="cls-1" width="500" height="500" rx="40"/><path class="cls-2" d="M281.69,169.42A18.85,18.85,0,0,1,272.52,153V109.56a8.3,8.3,0,0,0,4.35-7.24V92.67a9,9,0,0,0-4.35-7.24V78.67c0-3.38-1.44-3.86-6.75-6.27,0,0-5.31-3.86-17.38-3.86S231,72.4,231,72.4c-4.34,1.93-6.75,2.89-6.75,6.27v7.24c-2.9,1.45-4.83,3.86-4.83,7.24v9.66c0,3.37,1.93,5.79,4.83,7.24v43.44a18.64,18.64,0,0,1-9.17,15.93c-17.38,10.61-29,29-29,49.71V433.92c0,7.72,6.75,14,15,14h95.57a13.72,13.72,0,0,0,14-14V219.61C310.17,198.38,299.55,180,281.69,169.42ZM273,380.34H198.19V243.26H273Z"/><path class="cls-2" d="M470.73,274.64c0-49.72-12.55-68.54-12.55-68.54H339.92s-12.55,19.31-12.55,68.54c0,24.61,31.38,62.26,62.27,62.26v93.64c-2.42,1-37.65,12.55-37.65,12.55v6.28h93.64v-6.28L408,430.54V336.9C440.32,336.9,470.73,299.74,470.73,274.64Zm-12.55-12.55c0,37.65-23.17,62.26-59.37,62.26s-59.37-25.1-59.37-56c43.44-24.61,56.47,12.55,81.09,12.55S456.25,265,458.18,262.09Z"/><path class="cls-2" d="M142.37,234.21H52.24a4.4,4.4,0,0,1-4.39-4.4V218a4.4,4.4,0,0,1,4.39-4.39h90.13a4.39,4.39,0,0,1,4.39,4.39v11.8A4.39,4.39,0,0,1,142.37,234.21Z"/><path class="cls-2" d="M159.64,267l-17-27.44H52L35,267a31.56,31.56,0,0,0-5.71,18.54V416.43a32.94,32.94,0,0,0,32.94,32.94h70.21a32.93,32.93,0,0,0,32.93-32.94V285.52A31.6,31.6,0,0,0,159.64,267Zm-2.11,115.85H37.09V293.89H157.53v88.94Z"/></g></g></svg>