<svg xmlns="http://www.w3.org/2000/svg" viewBox="0 0 500 500"><defs><style>.cls-1{fill:#fff;}.cls-2,.cls-3{fill:#e8ab46;}.cls-2{fill-rule:evenodd;}</style></defs><g id="Layer_2" data-name="Layer 2"><g id="Layer_1-2" data-name="Layer 1"><rect class="cls-1" width="500" height="500" rx="40"/><path class="cls-2" d="M433.4,163.33H394.62a14.21,14.21,0,0,0-14.55,14.55v12.47A13.41,13.41,0,0,0,387,202.12l-23.55,33.24c-8.31,12.47-7.62,22.86-7.62,36.71a24.24,24.24,0,0,0,9.7,19.39,24,24,0,0,0,0,38.78,24,24,0,0,0,0,38.79,23.92,23.92,0,0,0-9.7,18.7v27.7a34,34,0,0,0,33.94,33.94h48.48c18,0,33.24-15.24,33.24-33.94v-27.7a22.06,22.06,0,0,0-9.7-18.7,24,24,0,0,0,0-38.79,24,24,0,0,0,0-38.78c6.24-4.16,9.7-11.77,9.7-19.39,0-13.85,1.39-24.24-7.62-36.71L441,202.12c4.15-2.08,6.23-6.93,6.23-11.77V177.88C447.25,169.57,441,163.33,433.4,163.33Zm4.85,14.55v12.47a5.2,5.2,0,0,1-4.85,4.84H394.62a4.72,4.72,0,0,1-4.85-4.84V177.88a4.73,4.73,0,0,1,4.85-4.85H433.4A5.21,5.21,0,0,1,438.25,177.88Zm9,147.52H380.07c-19.39,0-19.39-29.09,0-29.09h67.18C466.64,296.31,466.64,325.4,447.25,325.4Zm0,38.78H380.07c-19.39,0-19.39-29.09,0-29.09h67.18C466.64,335.09,466.64,364.18,447.25,364.18Z"/><path class="cls-3" d="M315.53,196.67a8.45,8.45,0,0,0-5.45-4.28c-6-1.75-19.54-8.29-31.09-34.08H231.11c-7.55,15.12-86.89,178.58-29.86,283.78a8.93,8.93,0,0,0,7,4.65c14.45,1.67,60.22,5.81,103.23-1.82a9.08,9.08,0,0,0,5.09-2.76c7.05-7.63,27.24-35.67,20.85-100.77C337.4,341.39,337.4,237,315.53,196.67ZM226.24,416.29l-12.71,6.91C171.1,345,227.19,222.75,227.77,221.59l13,6.47C229.66,250.29,192.24,353.53,226.24,416.29ZM296,299.91c-18.74-8.79-31.31-79.33-12-81.08,0,0,17.29-.94,24.05,57C308.05,275.86,314.73,308.63,296,299.91Z"/><polygon class="cls-3" points="237.45 100.66 230.38 143.77 279.75 143.77 271.17 100.66 237.45 100.66"/><path class="cls-2" d="M155.36,375.84l-11,57.81c-1.61,8.49-7.07,15.72-15.7,15.72h-63c-8.63,0-14.09-7.23-15.7-15.72L39,375.84ZM34.4,252.22H159.94c8.09,0,8.09,12.25,0,12.25H34.4c-8.09,0-8.09-12.25,0-12.25Zm121,19.62-11,57.81c-1.61,8.49-7.07,15.72-15.7,15.72h-63c-8.63,0-14.09-7.23-15.7-15.72L39,271.84Zm-121,84.38H159.94c8.09,0,8.09,12.25,0,12.25H34.4c-8.09,0-8.09-12.25,0-12.25Z"/></g></g></svg>