<svg xmlns="http://www.w3.org/2000/svg" viewBox="0 0 500 500"><defs><style>.cls-1{fill:#fff;}.cls-2{fill:#719ccb;}</style></defs><g id="Layer_2" data-name="Layer 2"><g id="Layer_1-2" data-name="Layer 1"><rect class="cls-1" width="500" height="500" rx="40"/><path class="cls-2" d="M253.77,251.6H87.66a4,4,0,0,0-4,4v161c-1.21,15-6.07,22.08-17,24.31a4.18,4.18,0,0,0-1,.06,22.18,22.18,0,0,1-26.62-21.54V281.62h-8V419.11s0,.06,0,.09,0,.12,0,.18v.27h0a30.19,30.19,0,0,0,30.14,29.72c.7,0,1.41-.06,2.11-.11a4.4,4.4,0,0,0,.73.07H224.43A33.37,33.37,0,0,0,257.76,416V255.6A4,4,0,0,0,253.77,251.6ZM109.31,277.24H237.17v8H109.31ZM237.23,302.7v34.76H159V302.7Zm-127.92-3.95h35.52v8H109.31Zm0,17.49h35.52v8H109.31Zm0,17.48h35.52v8H109.31Zm56.41,80.35H109.31v-8h56.41Zm0-17.68H109.31v-8h56.41Zm0-17.67H109.31v-8h56.41Zm0-17.68H109.31v-8h56.41Zm71.52,53H180.83v-8h56.41Zm0-17.68H180.83v-8h56.41Zm0-17.67H180.83v-8h56.41Zm0-17.68H180.83v-8h56.41Z"/><path class="cls-2" d="M61.19,436a16.7,16.7,0,0,0,16.72-16.22c0-.07,0-.14,0-.2H78V281.66H70V418.92a3.82,3.82,0,0,0-.09.59,8.74,8.74,0,0,1-17.48-.31v-.37c0-.11,0-.22,0-.32V281.66h-8V419.59h0A16.78,16.78,0,0,0,61.19,436Z"/><rect class="cls-2" x="57.82" y="281.73" width="7.99" height="138.12"/><path class="cls-2" d="M462.49,449.37V340.22H287.86V449.37ZM342.43,356.6a5.46,5.46,0,0,1,5.46-5.46h54.57a5.45,5.45,0,0,1,5.46,5.46v21.82a5.45,5.45,0,0,1-5.46,5.46H347.89a5.46,5.46,0,0,1-5.46-5.46Z"/><rect class="cls-2" x="293.32" y="143.77" width="163.71" height="21.83"/><rect class="cls-2" x="353.35" y="198.34" width="43.66" height="10.91"/><rect class="cls-2" x="353.35" y="362.05" width="43.66" height="10.91"/><path class="cls-2" d="M446.12,285.65V176.51H304.23V285.65ZM342.43,192.88a5.47,5.47,0,0,1,5.46-5.46h54.57a5.46,5.46,0,0,1,5.46,5.46v21.83a5.46,5.46,0,0,1-5.46,5.46H347.89a5.47,5.47,0,0,1-5.46-5.46Z"/><rect class="cls-2" x="276.95" y="296.57" width="196.46" height="32.74"/></g></g></svg>